<svg width="60" height="60" viewBox="0 0 60 60" fill="none" xmlns="http://www.w3.org/2000/svg">
<rect x="0.5" y="0.5" width="59" height="59" rx="11.5" stroke="#E3E3E3"/>
<path d="M30 19.5C27.2152 19.5 24.5445 20.6062 22.5754 22.5754C20.6062 24.5445 19.5 27.2152 19.5 30C19.5 32.7848 20.6062 35.4555 22.5754 37.4246C24.5445 39.3938 27.2152 40.5 30 40.5C32.7848 40.5 35.4555 39.3938 37.4246 37.4246C39.3938 35.4555 40.5 32.7848 40.5 30C40.5 27.2152 39.3938 24.5445 37.4246 22.5754C35.4555 20.6062 32.7848 19.5 30 19.5ZM28.1175 21.2025C28.2375 21.435 28.3575 21.6525 28.485 21.8775C29.055 22.8975 29.5575 23.775 29.235 24.9525C29.1075 25.4625 28.485 25.7025 27.63 26.0025C27.0167 26.1474 26.4589 26.468 26.025 26.925C25.7313 27.3611 25.5484 27.8623 25.4922 28.3851C25.436 28.9078 25.5082 29.4364 25.7025 29.925C25.845 30.48 25.9275 30.825 25.7775 31.05C25.6275 31.275 25.665 31.185 25.2675 31.2375C24.8203 31.2655 24.3854 31.3949 23.9956 31.6158C23.6058 31.8367 23.2713 32.1433 23.0175 32.5125C22.5847 33.1405 22.3425 33.8801 22.32 34.6425C21.4602 33.2464 21.0033 31.6396 21 30C21.0008 27.9406 21.7078 25.9437 23.0031 24.3427C24.2984 22.7416 26.1036 21.6333 28.1175 21.2025ZM23.9325 36.63C23.8125 35.7825 23.625 34.2525 24.225 33.45C24.3619 33.2366 24.5506 33.0614 24.7736 32.9407C24.9966 32.8201 25.2465 32.7579 25.5 32.76C25.798 32.7419 26.0879 32.6562 26.3478 32.5093C26.6077 32.3625 26.8307 32.1584 27 31.9125C27.1913 31.5568 27.3013 31.1631 27.322 30.7597C27.3428 30.3564 27.2738 29.9535 27.12 29.58C26.925 28.83 26.82 28.3275 27.195 27.825C27.4807 27.6467 27.7917 27.5127 28.1175 27.4275C29.07 27.105 30.3675 26.6775 30.6975 25.2975C31.1175 23.55 30.3975 22.2975 29.76 21.135L29.7225 21H30C31.6973 21 33.36 21.4845 34.7925 22.395C34.0038 23.6158 33.0554 24.7256 31.9725 25.695C30.9375 26.6325 31.695 27.7125 32.1975 28.425C32.4716 28.7189 32.6839 29.0648 32.8218 29.4423C32.9596 29.8198 33.0202 30.2211 33 30.6225C32.9459 30.8316 32.9464 31.0511 33.0016 31.2599C33.0568 31.4688 33.1647 31.6599 33.315 31.815C33.5422 31.9683 33.8051 32.0606 34.0783 32.0829C34.3515 32.1052 34.6259 32.0569 34.875 31.9425C35.055 31.8915 35.2372 31.854 35.4225 31.83C35.505 32.115 35.3475 32.3475 34.6725 32.97C33.9975 33.5925 33.105 34.4325 33.375 35.775C33.4707 36.1611 33.6472 36.5225 33.8928 36.8354C34.1384 37.1482 34.4476 37.4054 34.8 37.59C33.1366 38.6519 31.1686 39.1335 29.2028 38.9599C27.2371 38.7862 25.384 37.967 23.9325 36.63ZM36.0825 36.63L35.79 36.4425C35.265 36.1275 34.9425 35.9025 34.86 35.49C34.7775 35.0775 35.0475 34.7025 35.715 34.08C36.3825 33.4575 37.3125 32.58 36.8175 31.2525C36.36 30.045 35.1 30.3525 34.53 30.5025C34.5123 29.4293 34.1226 28.3954 33.4275 27.5775C33.2397 27.3522 33.0879 27.0992 32.9775 26.8275C34.1278 25.7976 35.1365 24.6199 35.9775 23.325C36.9152 24.1591 37.6673 25.1807 38.1851 26.3239C38.7029 27.4671 38.9749 28.7063 38.9834 29.9612C38.9919 31.2162 38.7367 32.4589 38.2344 33.609C37.7321 34.7591 36.9939 35.7908 36.0675 36.6375L36.0825 36.63Z" fill="#2A2941"/>
</svg>
