<svg width="60" height="60" viewBox="0 0 60 60" fill="none" xmlns="http://www.w3.org/2000/svg">
<rect x="0.5" y="0.5" width="59" height="59" rx="11.5" stroke="#E3E3E3"/>
<g clip-path="url(#clip0_0_120)">
<path fill-rule="evenodd" clip-rule="evenodd" d="M22 30C22.0001 28.4605 22.4445 26.9536 23.2798 25.6604C24.1151 24.3671 25.3058 23.3423 26.709 22.709C28.1123 22.0757 29.6684 21.8607 31.1908 22.0899C32.7132 22.319 34.1372 22.9826 35.2918 24.001C36.4464 25.0194 37.2826 26.3493 37.7002 27.8311C38.1177 29.313 38.0988 30.8838 37.6457 32.3552C37.1926 33.8265 36.3246 35.1359 35.1458 36.1262C33.967 37.1165 32.5275 37.7456 31 37.938V32H33C33.2652 32 33.5196 31.8946 33.7071 31.7071C33.8946 31.5196 34 31.2652 34 31C34 30.7348 33.8946 30.4804 33.7071 30.2929C33.5196 30.1054 33.2652 30 33 30H31V28C31 27.7348 31.1054 27.4804 31.2929 27.2929C31.4804 27.1054 31.7348 27 32 27H32.5C32.7652 27 33.0196 26.8946 33.2071 26.7071C33.3946 26.5196 33.5 26.2652 33.5 26C33.5 25.7348 33.3946 25.4804 33.2071 25.2929C33.0196 25.1054 32.7652 25 32.5 25H32C31.2044 25 30.4413 25.3161 29.8787 25.8787C29.3161 26.4413 29 27.2044 29 28V30H27C26.7348 30 26.4804 30.1054 26.2929 30.2929C26.1054 30.4804 26 30.7348 26 31C26 31.2652 26.1054 31.5196 26.2929 31.7071C26.4804 31.8946 26.7348 32 27 32H29V37.938C27.0667 37.6942 25.2888 36.7533 24 35.2917C22.7112 33.8302 22 31.9486 22 30ZM30 40C35.523 40 40 35.523 40 30C40 24.477 35.523 20 30 20C24.477 20 20 24.477 20 30C20 35.523 24.477 40 30 40Z" fill="#2A2941"/>
</g>
<defs>
<clipPath id="clip0_0_120">
<rect width="24" height="24" fill="white" transform="translate(18 18)"/>
</clipPath>
</defs>
</svg>
