<svg width="60" height="60" viewBox="0 0 60 60" fill="none" xmlns="http://www.w3.org/2000/svg">
<rect x="0.5" y="0.5" width="59" height="59" rx="11.5" stroke="#E3E3E3"/>
<path d="M34 40.027V37.157C34.0375 36.6802 33.9731 36.2008 33.811 35.7508C33.6489 35.3008 33.3929 34.8904 33.06 34.547C36.2 34.197 39.5 33.007 39.5 27.547C39.4997 26.1508 38.9627 24.8082 38 23.797C38.4559 22.5755 38.4236 21.2253 37.91 20.027C37.91 20.027 36.73 19.677 34 21.507C31.708 20.8858 29.292 20.8858 27 21.507C24.27 19.677 23.09 20.027 23.09 20.027C22.5764 21.2253 22.5441 22.5755 23 23.797C22.0301 24.8157 21.4925 26.1705 21.5 27.577C21.5 32.997 24.8 34.187 27.94 34.577C27.611 34.917 27.3573 35.3224 27.1953 35.7669C27.0334 36.2114 26.9668 36.6851 27 37.157V40.027" stroke="#2A2941" stroke-width="1.5" stroke-linecap="round" stroke-linejoin="round"/>
<path d="M27 38.027C24 39 21.5 38.027 20 35.027" stroke="#2A2941" stroke-width="1.5" stroke-linecap="round" stroke-linejoin="round"/>
</svg>
