<svg width="60" height="60" viewBox="0 0 60 60" fill="none" xmlns="http://www.w3.org/2000/svg">
<rect x="0.5" y="0.5" width="59" height="59" rx="11.5" stroke="#E3E3E3"/>
<path d="M34.3748 21.2498C35.5342 21.2533 36.6451 21.7154 37.4648 22.5352C38.2846 23.3549 38.7467 24.4658 38.7502 25.6252V34.3748C38.7467 35.5342 38.2846 36.6451 37.4648 37.4648C36.6451 38.2846 35.5342 38.7467 34.3748 38.7502H25.6252C24.4658 38.7467 23.3549 38.2846 22.5352 37.4648C21.7154 36.6451 21.2533 35.5342 21.2498 34.3748V25.6252C21.2533 24.4658 21.7154 23.3549 22.5352 22.5352C23.3549 21.7154 24.4658 21.2533 25.6252 21.2498H34.3748ZM34.3748 19.5H25.6252C22.2562 19.5 19.5 22.2562 19.5 25.6252V34.3748C19.5 37.7437 22.2562 40.5 25.6252 40.5H34.3748C37.7437 40.5 40.5 37.7437 40.5 34.3748V25.6252C40.5 22.2562 37.7437 19.5 34.3748 19.5Z" fill="#2A2941"/>
<path d="M35.6873 25.6252C35.4278 25.6252 35.174 25.5482 34.9582 25.404C34.7423 25.2597 34.5741 25.0548 34.4748 24.8149C34.3754 24.5751 34.3494 24.3112 34.4001 24.0566C34.4507 23.802 34.5757 23.5681 34.7593 23.3846C34.9428 23.201 35.1767 23.076 35.4313 23.0254C35.6859 22.9747 35.9498 23.0007 36.1896 23.1001C36.4294 23.1994 36.6344 23.3676 36.7786 23.5835C36.9229 23.7993 36.9998 24.0531 36.9998 24.3127C37.0002 24.4851 36.9665 24.656 36.9007 24.8154C36.8349 24.9748 36.7382 25.1196 36.6163 25.2416C36.4943 25.3635 36.3495 25.4602 36.1901 25.526C36.0306 25.5918 35.8598 25.6255 35.6873 25.6252ZM30 26.4998C30.6923 26.4998 31.369 26.7051 31.9446 27.0897C32.5202 27.4743 32.9688 28.021 33.2337 28.6605C33.4986 29.3001 33.568 30.0039 33.4329 30.6828C33.2978 31.3618 32.9645 31.9855 32.475 32.475C31.9855 32.9645 31.3618 33.2978 30.6828 33.4329C30.0039 33.568 29.3001 33.4986 28.6606 33.2337C28.021 32.9688 27.4743 32.5202 27.0897 31.9446C26.7051 31.369 26.4998 30.6923 26.4998 30C26.5008 29.072 26.8699 28.1823 27.5261 27.5261C28.1823 26.8699 29.072 26.5008 30 26.4998ZM30 24.75C28.9617 24.75 27.9466 25.0579 27.0833 25.6348C26.2199 26.2117 25.547 27.0316 25.1496 27.9909C24.7523 28.9502 24.6483 30.0058 24.8509 31.0242C25.0535 32.0426 25.5535 32.9781 26.2877 33.7123C27.0219 34.4465 27.9574 34.9465 28.9758 35.1491C29.9942 35.3517 31.0498 35.2477 32.0091 34.8504C32.9684 34.453 33.7883 33.7801 34.3652 32.9167C34.9421 32.0534 35.25 31.0383 35.25 30C35.25 28.6076 34.6969 27.2723 33.7123 26.2877C32.7277 25.3031 31.3924 24.75 30 24.75Z" fill="#2A2941"/>
</svg>
