<svg width="60" height="60" viewBox="0 0 60 60" fill="none" xmlns="http://www.w3.org/2000/svg">
<rect x="0.5" y="0.5" width="59" height="59" rx="11.5" stroke="#E3E3E3"/>
<path d="M30 20C24.48 20 20 24.48 20 30C20 35.52 24.48 40 30 40C35.52 40 40 35.52 40 30C40 24.48 35.52 20 30 20ZM34.64 26.8C34.49 28.38 33.84 32.22 33.51 33.99C33.37 34.74 33.09 34.99 32.83 35.02C32.25 35.07 31.81 34.64 31.25 34.27C30.37 33.69 29.87 33.33 29.02 32.77C28.03 32.12 28.67 31.76 29.24 31.18C29.39 31.03 31.95 28.7 32 28.49C32.0069 28.4582 32.006 28.4252 31.9973 28.3938C31.9886 28.3624 31.9724 28.3337 31.95 28.31C31.89 28.26 31.81 28.28 31.74 28.29C31.65 28.31 30.25 29.24 27.52 31.08C27.12 31.35 26.76 31.49 26.44 31.48C26.08 31.47 25.4 31.28 24.89 31.11C24.26 30.91 23.77 30.8 23.81 30.45C23.83 30.27 24.08 30.09 24.55 29.9C27.47 28.63 29.41 27.79 30.38 27.39C33.16 26.23 33.73 26.03 34.11 26.03C34.19 26.03 34.38 26.05 34.5 26.15C34.6 26.23 34.63 26.34 34.64 26.42C34.63 26.48 34.65 26.66 34.64 26.8Z" fill="#2A2941"/>
</svg>
